<svg width="24" height="24" viewBox="0 0 24 24" fill="none" xmlns="http://www.w3.org/2000/svg">
<path d="M12.0576 20C9.83495 20 7.94595 19.2224 6.39062 17.667C4.83528 16.111 4.05762 14.222 4.05762 12C4.05762 9.97471 4.71762 8.21805 6.03762 6.73005C7.35895 5.24338 8.99362 4.36571 10.9416 4.09705C10.9956 4.09705 11.0486 4.09905 11.1006 4.10305C11.1526 4.10705 11.2036 4.11271 11.2536 4.12005C10.9163 4.59071 10.6493 5.11405 10.4526 5.69005C10.256 6.26671 10.1576 6.87038 10.1576 7.50105C10.1576 9.27905 10.7796 10.79 12.0236 12.034C13.2683 13.2787 14.7796 13.901 16.5576 13.901C17.1923 13.901 17.7966 13.8027 18.3706 13.606C18.9453 13.4094 19.4613 13.1424 19.9186 12.805C19.9266 12.855 19.9326 12.906 19.9366 12.958C19.9399 13.01 19.9416 13.0627 19.9416 13.116C19.6856 15.0647 18.8139 16.6994 17.3266 18.02C15.8393 19.3407 14.0836 20.0007 12.0576 20Z" fill="#333333"/>
</svg>
