<svg width="114" height="34" viewBox="0 0 114 34" fill="none" xmlns="http://www.w3.org/2000/svg">
<path d="M1 1L2.54954 2.9902C4.09907 4.9804 7.19815 8.9608 10.2972 8.494C13.3963 8.02721 16.4954 3.11321 19.5944 2.31402C22.6935 1.51484 25.7926 4.83046 28.8917 7.34952C31.9907 9.86858 35.0898 11.5911 38.1889 13.4785C41.288 15.3659 44.387 17.4182 47.4861 14.808C50.5852 12.1977 53.6843 4.92494 56.7833 2.2445C59.8824 -0.435943 62.9815 1.47595 66.0805 7.78672C69.1796 14.0975 72.2787 24.8071 75.3778 25.0152C78.4768 25.2232 81.5759 14.9296 84.675 13.6672C87.7741 12.4048 90.8731 20.1736 93.9722 25.6827C97.0713 31.1917 100.17 34.4409 103.269 32.3714C106.369 30.302 109.468 22.9139 111.017 19.2199L112.567 15.5259" stroke="#EC635F" stroke-width="2"/>
</svg>
