<svg width="14" height="15" viewBox="0 0 14 15" fill="none" xmlns="http://www.w3.org/2000/svg">
<path d="M11.48 6.99605C11.48 6.40805 11.004 6.10005 10.36 6.10005H8.48404C8.62404 5.59605 8.68004 5.12005 8.68004 4.70005C8.68004 3.07605 8.23204 2.74005 7.84004 2.74005C7.58804 2.74005 7.39204 2.76805 7.14004 2.90805C7.05604 2.96405 7.02804 3.02005 7.00004 3.10405L6.72004 4.61605C6.41204 5.40005 5.65604 6.10005 5.04004 6.57605V10.58C5.26404 10.58 5.48804 10.692 5.76804 10.8321C6.07604 10.972 6.38404 11.14 6.72004 11.14H9.38004C9.94004 11.14 10.36 10.692 10.36 10.3C10.36 10.216 10.36 10.16 10.332 10.104C10.668 9.96405 10.92 9.68405 10.92 9.32005C10.92 9.15205 10.892 9.01205 10.836 8.87205C11.06 8.73205 11.256 8.48005 11.256 8.20005C11.256 8.03205 11.172 7.86405 11.088 7.72405C11.312 7.55605 11.48 7.27605 11.48 6.99605ZM10.892 6.99605C10.892 7.36005 10.528 7.38805 10.472 7.55605C10.416 7.75205 10.696 7.80805 10.696 8.14405C10.696 8.48005 10.276 8.48005 10.22 8.67605C10.164 8.90005 10.36 8.95605 10.36 9.29205V9.34805C10.304 9.62805 9.88404 9.65605 9.80004 9.76805C9.71604 9.90805 9.80004 9.96405 9.80004 10.272C9.80004 10.4401 9.60404 10.5521 9.38004 10.5521H6.72004C6.49604 10.5521 6.27204 10.44 5.99204 10.3C5.76804 10.188 5.54404 10.076 5.32004 10.02V7.08005C6.02004 6.54805 6.91604 5.76405 7.25204 4.78405V4.72805L7.50404 3.32805C7.61604 3.30005 7.70004 3.30005 7.84004 3.30005C7.89604 3.30005 8.12004 3.63605 8.12004 4.70005C8.12004 5.12005 8.03604 5.56805 7.89604 6.10005H7.84004C7.67204 6.10005 7.56004 6.21205 7.56004 6.38005C7.56004 6.54805 7.67204 6.66005 7.84004 6.66005H10.36C10.64 6.66005 10.892 6.80005 10.892 6.99605Z" fill="#555555"/>
<path d="M4.47999 11.1401H2.79999C2.49199 11.1401 2.23999 10.8881 2.23999 10.5801V6.66013C2.23999 6.35213 2.49199 6.10013 2.79999 6.10013H4.47999C4.78799 6.10013 5.03999 6.35213 5.03999 6.66013V10.5801C5.03999 10.8881 4.78799 11.1401 4.47999 11.1401ZM2.79999 6.66013V10.5801H4.47999V6.66013H2.79999Z" fill="#555555"/>
</svg>
