<svg width="24" height="24" viewBox="0 0 24 24" fill="none" xmlns="http://www.w3.org/2000/svg">
<path d="M12 0C5.37281 0 0 5.37281 0 12C0 15.3141 1.34344 18.3141 3.51469 20.4853L1.22906 22.7709C0.775312 23.2247 1.09688 24 1.73813 24H12C18.6272 24 24 18.6272 24 12C24 5.37281 18.6272 0 12 0Z" fill="#FF4500"/>
<path d="M18.8022 14.3944C20.3498 14.3944 21.6044 13.1398 21.6044 11.5922C21.6044 10.0446 20.3498 8.79004 18.8022 8.79004C17.2546 8.79004 16 10.0446 16 11.5922C16 13.1398 17.2546 14.3944 18.8022 14.3944Z" fill="url(#paint0_radial_316_4855)"/>
<path d="M5.19672 14.3944C6.74432 14.3944 7.99891 13.1398 7.99891 11.5922C7.99891 10.0446 6.74432 8.79004 5.19672 8.79004C3.64911 8.79004 2.39453 10.0446 2.39453 11.5922C2.39453 13.1398 3.64911 14.3944 5.19672 14.3944Z" fill="url(#paint1_radial_316_4855)"/>
<path d="M12.0055 19.9998C16.4237 19.9998 20.0052 17.3135 20.0052 13.9998C20.0052 10.686 16.4237 7.99976 12.0055 7.99976C7.58744 7.99976 4.00586 10.686 4.00586 13.9998C4.00586 17.3135 7.58744 19.9998 12.0055 19.9998Z" fill="url(#paint2_radial_316_4855)"/>
<path d="M9.64187 13.4165C9.59499 14.4327 8.91999 14.8021 8.1353 14.8021C7.35062 14.8021 6.75062 14.2818 6.79749 13.2655C6.84437 12.2493 7.51937 11.5762 8.30405 11.5762C9.08874 11.5762 9.68874 12.4002 9.64187 13.4165Z" fill="#842123"/>
<path d="M17.2161 13.2646C17.263 14.2808 16.6639 14.8011 15.8783 14.8011C15.0927 14.8011 14.4177 14.4327 14.3717 13.4155C14.3248 12.3993 14.9239 11.5752 15.7095 11.5752C16.4952 11.5752 17.1702 12.2474 17.2161 13.2646Z" fill="#842123"/>
<path d="M14.3716 13.5047C14.4156 14.4562 15.0466 14.8012 15.7816 14.8012C16.5166 14.8012 17.0772 14.2847 17.0331 13.3331C16.9891 12.3815 16.3581 11.759 15.6231 11.759C14.8881 11.759 14.3275 12.5531 14.3716 13.5047Z" fill="url(#paint3_radial_316_4855)"/>
<path d="M9.64251 13.5047C9.59844 14.4562 8.96751 14.8012 8.23251 14.8012C7.49751 14.8012 6.93688 14.2847 6.98094 13.3331C7.02501 12.3815 7.65594 11.759 8.39094 11.759C9.12595 11.759 9.68657 12.5531 9.64251 13.5047Z" fill="url(#paint4_radial_316_4855)"/>
<path d="M12.0071 15.48C11.0152 15.48 10.0646 15.5278 9.18519 15.615C9.03519 15.63 8.93957 15.7828 8.99769 15.9197C9.48988 17.0737 10.6514 17.8847 12.0071 17.8847C13.3627 17.8847 14.5233 17.0737 15.0164 15.9197C15.0746 15.7828 14.9799 15.63 14.8289 15.615C13.9496 15.5278 12.9989 15.48 12.0071 15.48Z" fill="#BBCFDA"/>
<path d="M12.0056 15.7002C11.0165 15.7002 10.0687 15.7489 9.19217 15.838C9.04217 15.853 8.94748 16.0086 9.0056 16.1474C9.49685 17.3202 10.6547 18.1433 12.0047 18.1433C13.3547 18.1433 14.5134 17.3193 15.0047 16.1474C15.0628 16.0086 14.9681 15.853 14.8181 15.838C13.9415 15.7489 12.9937 15.7002 12.0047 15.7002H12.0056Z" fill="white"/>
<path d="M12.0072 15.5859C11.0341 15.5859 10.1013 15.6338 9.23784 15.7209C9.09065 15.7359 8.9969 15.8888 9.05409 16.0256C9.5369 17.1797 10.6769 17.9906 12.0072 17.9906C13.3375 17.9906 14.4766 17.1797 14.9603 16.0256C15.0175 15.8888 14.9238 15.7359 14.7766 15.7209C13.9141 15.6338 12.9813 15.5859 12.0072 15.5859Z" fill="url(#paint5_radial_316_4855)"/>
<path d="M16.388 7.18414C17.4846 7.18414 18.3736 6.29515 18.3736 5.19852C18.3736 4.10189 17.4846 3.21289 16.388 3.21289C15.2913 3.21289 14.4023 4.10189 14.4023 5.19852C14.4023 6.29515 15.2913 7.18414 16.388 7.18414Z" fill="url(#paint6_radial_316_4855)"/>
<path d="M11.9791 8.25274C11.741 8.25274 11.5488 8.15337 11.5488 7.99962C11.5488 6.22024 12.9963 4.77368 14.7748 4.77368C15.0129 4.77368 15.2051 4.96681 15.2051 5.20399C15.2051 5.44118 15.012 5.63431 14.7748 5.63431C13.4707 5.63431 12.4095 6.69556 12.4095 7.99962C12.4095 8.15337 12.2163 8.25274 11.9791 8.25274Z" fill="url(#paint7_radial_316_4855)"/>
<path d="M9.11852 13.9754C9.11852 14.3438 8.72664 14.5088 8.24383 14.5088C7.76102 14.5088 7.36914 14.3438 7.36914 13.9754C7.36914 13.607 7.76102 13.3088 8.24383 13.3088C8.72664 13.3088 9.11852 13.607 9.11852 13.9754Z" fill="#FF6101"/>
<path d="M16.6439 13.9754C16.6439 14.3438 16.252 14.5088 15.7692 14.5088C15.2864 14.5088 14.8945 14.3438 14.8945 13.9754C14.8945 13.607 15.2864 13.3088 15.7692 13.3088C16.252 13.3088 16.6439 13.607 16.6439 13.9754Z" fill="#FF6101"/>
<path d="M8.84836 12.9759C9.02026 12.9759 9.15961 12.8239 9.15961 12.6365C9.15961 12.4491 9.02026 12.2971 8.84836 12.2971C8.67646 12.2971 8.53711 12.4491 8.53711 12.6365C8.53711 12.8239 8.67646 12.9759 8.84836 12.9759Z" fill="#FFC49C"/>
<path d="M16.2468 12.9759C16.4187 12.9759 16.558 12.8239 16.558 12.6365C16.558 12.4491 16.4187 12.2971 16.2468 12.2971C16.0749 12.2971 15.9355 12.4491 15.9355 12.6365C15.9355 12.8239 16.0749 12.9759 16.2468 12.9759Z" fill="#FFC49C"/>
<defs>
<radialGradient id="paint0_radial_316_4855" cx="0" cy="0" r="1" gradientUnits="userSpaceOnUse" gradientTransform="translate(18.8445 10.0836) scale(5.61576 4.89886)">
<stop stop-color="#FEFFFF"/>
<stop offset="0.4" stop-color="#FEFFFF"/>
<stop offset="0.51" stop-color="#F9FCFC"/>
<stop offset="0.62" stop-color="#EDF3F5"/>
<stop offset="0.7" stop-color="#DEE9EC"/>
<stop offset="0.72" stop-color="#D8E4E8"/>
<stop offset="0.76" stop-color="#CCD8DF"/>
<stop offset="0.8" stop-color="#C8D5DD"/>
<stop offset="0.83" stop-color="#CCD6DE"/>
<stop offset="0.85" stop-color="#D8DBE2"/>
<stop offset="0.88" stop-color="#EDE3E9"/>
<stop offset="0.9" stop-color="#FFEBEF"/>
</radialGradient>
<radialGradient id="paint1_radial_316_4855" cx="0" cy="0" r="1" gradientUnits="userSpaceOnUse" gradientTransform="translate(5.23908 10.0836) scale(5.61577 4.89886)">
<stop stop-color="#FEFFFF"/>
<stop offset="0.4" stop-color="#FEFFFF"/>
<stop offset="0.51" stop-color="#F9FCFC"/>
<stop offset="0.62" stop-color="#EDF3F5"/>
<stop offset="0.7" stop-color="#DEE9EC"/>
<stop offset="0.72" stop-color="#D8E4E8"/>
<stop offset="0.76" stop-color="#CCD8DF"/>
<stop offset="0.8" stop-color="#C8D5DD"/>
<stop offset="0.83" stop-color="#CCD6DE"/>
<stop offset="0.85" stop-color="#D8DBE2"/>
<stop offset="0.88" stop-color="#EDE3E9"/>
<stop offset="0.9" stop-color="#FFEBEF"/>
</radialGradient>
<radialGradient id="paint2_radial_316_4855" cx="0" cy="0" r="1" gradientUnits="userSpaceOnUse" gradientTransform="translate(12.219 9.29781) scale(16.9394 11.8936)">
<stop stop-color="#FEFFFF"/>
<stop offset="0.4" stop-color="#FEFFFF"/>
<stop offset="0.51" stop-color="#F9FCFC"/>
<stop offset="0.62" stop-color="#EDF3F5"/>
<stop offset="0.7" stop-color="#DEE9EC"/>
<stop offset="0.72" stop-color="#D8E4E8"/>
<stop offset="0.76" stop-color="#CCD8DF"/>
<stop offset="0.8" stop-color="#C8D5DD"/>
<stop offset="0.83" stop-color="#CCD6DE"/>
<stop offset="0.85" stop-color="#D8DBE2"/>
<stop offset="0.88" stop-color="#EDE3E9"/>
<stop offset="0.9" stop-color="#FFEBEF"/>
</radialGradient>
<radialGradient id="paint3_radial_316_4855" cx="0" cy="0" r="1" gradientUnits="userSpaceOnUse" gradientTransform="translate(15.4947 14.1535) rotate(180) scale(1.41529 2.07776)">
<stop stop-color="#FF6600"/>
<stop offset="0.5" stop-color="#FF4500"/>
<stop offset="0.7" stop-color="#FC4301"/>
<stop offset="0.82" stop-color="#F43F07"/>
<stop offset="0.92" stop-color="#E53812"/>
<stop offset="1" stop-color="#D4301F"/>
</radialGradient>
<radialGradient id="paint4_radial_316_4855" cx="0" cy="0" r="1" gradientUnits="userSpaceOnUse" gradientTransform="translate(8.45568 14.1535) scale(1.41529 2.07776)">
<stop stop-color="#FF6600"/>
<stop offset="0.5" stop-color="#FF4500"/>
<stop offset="0.7" stop-color="#FC4301"/>
<stop offset="0.82" stop-color="#F43F07"/>
<stop offset="0.92" stop-color="#E53812"/>
<stop offset="1" stop-color="#D4301F"/>
</radialGradient>
<radialGradient id="paint5_radial_316_4855" cx="0" cy="0" r="1" gradientUnits="userSpaceOnUse" gradientTransform="translate(12.0352 18.2726) scale(4.99052 3.29162)">
<stop stop-color="#172E35"/>
<stop offset="0.29" stop-color="#0E1C21"/>
<stop offset="0.73" stop-color="#030708"/>
<stop offset="1"/>
</radialGradient>
<radialGradient id="paint6_radial_316_4855" cx="0" cy="0" r="1" gradientUnits="userSpaceOnUse" gradientTransform="translate(16.4351 3.19752) scale(4.38069)">
<stop stop-color="#FEFFFF"/>
<stop offset="0.4" stop-color="#FEFFFF"/>
<stop offset="0.51" stop-color="#F9FCFC"/>
<stop offset="0.62" stop-color="#EDF3F5"/>
<stop offset="0.7" stop-color="#DEE9EC"/>
<stop offset="0.72" stop-color="#D8E4E8"/>
<stop offset="0.76" stop-color="#CCD8DF"/>
<stop offset="0.8" stop-color="#C8D5DD"/>
<stop offset="0.83" stop-color="#CCD6DE"/>
<stop offset="0.85" stop-color="#D8DBE2"/>
<stop offset="0.88" stop-color="#EDE3E9"/>
<stop offset="0.9" stop-color="#FFEBEF"/>
</radialGradient>
<radialGradient id="paint7_radial_316_4855" cx="0" cy="0" r="1" gradientUnits="userSpaceOnUse" gradientTransform="translate(14.6107 7.97299) scale(3.59065 3.59065)">
<stop offset="0.48" stop-color="#7A9299"/>
<stop offset="0.67" stop-color="#172E35"/>
<stop offset="0.75"/>
<stop offset="0.82" stop-color="#172E35"/>
</radialGradient>
</defs>
</svg>
